<?xml version="1.0" encoding="utf-8"?>
<svg xmlns="http://www.w3.org/2000/svg" viewBox="182.138 0 1765.952 451.243" xmlns:bx="https://boxy-svg.com" width="1765.952px" height="451.243px"><g><path style="fill:#ffc10d" d="M 356.276 373.021 C 344.122 356.084 336.947 335.397 336.947 313.029 C 336.947 255.946 383.363 209.401 440.575 209.401 C 485.763 209.401 522.482 172.682 522.482 127.623 C 522.482 82.564 485.827 45.91 440.704 45.91 L 440.639 45.91 C 344.38 45.845 266.094 124.132 266.094 220.326 C 266.094 285.942 302.554 343.219 356.276 373.021"/><path style="fill:#56ace0" d="M 615.055 220.326 C 615.055 154.71 578.659 97.562 525.002 67.696 C 537.026 84.633 544.137 105.256 544.137 127.559 C 544.137 184.642 497.721 231.187 440.509 231.187 C 395.321 231.187 358.602 267.906 358.602 312.965 C 358.602 358.024 395.321 394.743 440.444 394.743 L 440.509 394.743 C 536.769 394.806 615.055 316.52 615.055 220.326"/><path style="fill: rgb(231, 37, 100);" d="M 429.649 151.348 C 447.039 135.38 463.524 115.599 463.524 107.13 C 463.524 99.696 457.512 93.684 450.078 93.684 C 445.488 93.684 441.351 96.011 438.765 99.761 C 434.434 106.355 424.866 106.355 420.535 99.761 C 418.078 95.882 413.812 93.684 409.222 93.684 C 401.788 93.684 395.776 99.696 395.776 107.13 C 395.839 116.439 413.746 136.802 429.649 151.348 M 451.565 289.303 C 434.11 305.271 417.626 325.052 417.626 333.521 C 417.626 340.955 423.638 346.967 431.072 346.967 C 435.662 346.967 439.799 344.64 442.385 340.89 C 446.716 334.296 456.284 334.296 460.615 340.89 C 463.136 344.769 467.338 346.967 471.928 346.967 C 479.362 346.967 485.374 340.955 485.374 333.521 C 485.31 324.148 467.468 303.849 451.565 289.303"/><path style="fill:#194f82" d="M 440.575 24.059 C 332.292 24.059 244.308 112.043 244.308 220.326 C 244.308 328.609 332.292 416.593 440.575 416.593 C 548.858 416.593 636.842 328.609 636.842 220.326 C 636.842 112.043 548.857 24.059 440.575 24.059 M 266.094 220.326 C 266.094 124.132 344.381 45.845 440.575 45.845 L 440.64 45.845 C 485.699 45.845 522.418 82.564 522.418 127.623 C 522.418 172.746 485.699 209.401 440.511 209.401 C 383.428 209.401 336.883 255.817 336.883 313.029 C 336.883 335.461 344.059 356.084 356.212 373.021 C 302.554 343.219 266.094 285.942 266.094 220.326 M 440.575 394.806 L 440.51 394.806 C 395.451 394.806 358.732 358.087 358.732 313.028 C 358.732 267.905 395.451 231.25 440.639 231.25 C 497.722 231.25 544.267 184.834 544.267 127.622 C 544.267 105.319 537.156 84.632 525.132 67.759 C 578.659 97.496 615.055 154.708 615.055 220.325 C 615.055 316.52 536.769 394.806 440.575 394.806"/><path style="fill:#194f82" d="M 422.732 174.168 C 426.805 177.465 432.688 177.465 436.696 174.103 C 448.138 164.535 485.375 131.307 485.375 107.129 C 485.31 87.67 469.537 71.832 450.078 71.832 C 442.765 71.832 435.631 74.09 429.65 78.297 C 423.767 74.095 416.656 71.832 409.222 71.832 C 389.763 71.832 373.925 87.67 373.925 107.129 C 373.989 132.536 414.522 167.445 422.732 174.168 M 409.221 93.683 C 413.811 93.683 417.948 96.01 420.534 99.76 C 424.865 106.354 434.433 106.354 438.764 99.76 C 441.285 95.881 445.487 93.683 450.077 93.683 C 457.511 93.683 463.523 99.695 463.523 107.129 C 463.523 115.468 447.038 135.315 429.584 151.347 C 413.746 136.802 395.839 116.503 395.839 107.129 C 395.775 99.695 401.787 93.683 409.221 93.683 M 458.417 266.483 C 454.344 263.186 448.461 263.186 444.453 266.548 C 433.011 276.116 395.774 309.344 395.774 333.522 C 395.774 352.981 411.612 368.819 431.071 368.819 C 438.384 368.82 445.518 366.562 451.499 362.354 C 457.382 366.556 464.493 368.819 471.927 368.819 C 491.386 368.819 507.224 352.981 507.224 333.522 C 507.161 308.116 466.563 273.206 458.417 266.483 M 471.864 346.968 C 467.274 346.968 463.137 344.641 460.551 340.891 C 456.22 334.297 446.652 334.297 442.321 340.891 C 439.864 344.77 435.598 346.968 431.008 346.968 C 423.574 346.968 417.562 340.956 417.562 333.522 C 417.562 325.183 434.047 305.336 451.501 289.304 C 467.404 303.785 485.376 324.148 485.376 333.522 C 485.31 340.956 479.298 346.968 471.864 346.968"/></g><path d="M 758.1 144.57 L 723 144.57 L 723 249.57 L 732.6 249.57 L 732.6 213.72 L 758.1 213.72 Q 765.45 213.72 771.08 211.92 Q 776.7 210.12 780.53 206.07 Q 784.35 202.02 786.3 195.27 Q 788.25 188.52 788.25 178.92 Q 788.25 169.02 786.23 162.42 Q 784.2 155.82 780.23 151.92 Q 776.25 148.02 770.7 146.3 Q 765.15 144.57 758.1 144.57 Z M 732.6 204.57 L 732.6 153.57 L 757.95 153.57 Q 762.45 153.57 766.28 154.62 Q 770.1 155.67 772.88 158.37 Q 775.65 161.07 777.15 166.02 Q 778.65 170.97 778.65 178.92 Q 778.65 187.32 777.15 192.5 Q 775.65 197.67 772.8 200.22 Q 769.95 202.77 766.2 203.67 Q 762.45 204.57 757.95 204.57 Z M 860.91 179.82 L 857.61 172.77 Q 853.71 173.82 851.24 176.22 Q 848.76 178.62 847.49 181.77 Q 846.21 184.92 846.21 188.52 L 846.21 223.47 Q 846.21 227.07 844.79 230.45 Q 843.36 233.82 840.96 236.45 Q 838.56 239.07 835.26 240.57 Q 831.96 242.07 828.06 242.07 Q 824.76 242.07 821.54 241.25 Q 818.31 240.42 815.61 238.55 Q 812.91 236.67 811.34 233.37 Q 809.76 230.07 809.76 225.27 L 809.76 174.42 L 800.16 174.42 L 800.16 225.87 Q 800.16 232.47 801.96 237.2 Q 803.76 241.92 807.14 244.92 Q 810.51 247.92 815.31 249.42 Q 820.11 250.92 826.11 250.92 Q 829.86 250.92 833.61 249.95 Q 837.36 248.97 840.74 247.1 Q 844.11 245.22 846.21 242.52 L 846.21 258.42 Q 846.21 261.12 845.69 263.52 Q 845.16 265.92 843.96 267.95 Q 842.76 269.97 840.89 271.4 Q 839.01 272.82 836.46 273.72 L 839.01 281.07 Q 845.01 279.27 848.61 276.57 Q 852.21 273.87 853.94 269.52 Q 855.66 265.17 855.66 258.87 L 855.66 189.27 Q 855.66 184.47 857.16 182.6 Q 858.66 180.72 860.91 179.82 Z M 929.44 249.57 L 929.44 144.57 L 920.14 144.57 L 920.14 178.47 Q 915.19 176.22 909.34 174.65 Q 903.49 173.07 896.44 173.07 Q 891.94 173.07 887.59 174.27 Q 883.24 175.47 879.64 178.17 Q 876.04 180.87 873.87 185.15 Q 871.69 189.42 871.69 195.72 L 871.69 224.52 Q 871.69 232.47 874.32 237.8 Q 876.94 243.12 881.52 246.05 Q 886.09 248.97 892.32 250.1 Q 898.54 251.22 905.74 251.07 Q 907.84 251.07 910.84 250.92 Q 913.84 250.77 916.99 250.62 Q 920.14 250.47 922.92 250.25 Q 925.69 250.02 927.49 249.8 Q 929.29 249.57 929.44 249.57 Z M 920.14 187.17 L 920.14 241.77 Q 920.14 241.77 919.47 241.85 Q 918.79 241.92 917.44 242.07 Q 916.09 242.22 914.22 242.3 Q 912.34 242.37 910.02 242.52 Q 907.69 242.67 905.14 242.82 Q 897.94 242.97 893.29 241.85 Q 888.64 240.72 885.94 238.25 Q 883.24 235.77 882.12 232.02 Q 880.99 228.27 880.99 223.17 L 880.99 196.47 Q 880.99 191.67 882.72 188.67 Q 884.44 185.67 886.92 184.1 Q 889.39 182.52 892.02 182 Q 894.64 181.47 896.59 181.47 Q 903.49 181.47 909.12 183.12 Q 914.74 184.77 920.14 187.17 Z M 990.25 197.37 Q 986.95 195.12 982.75 193.25 Q 978.55 191.37 973.98 190.25 Q 969.4 189.12 964.6 189.12 Q 960.1 189.12 956.05 190.4 Q 952 191.67 948.78 194.3 Q 945.55 196.92 943.68 201.2 Q 941.8 205.47 941.8 211.77 L 941.8 224.52 Q 941.8 232.62 944.43 237.95 Q 947.05 243.27 951.55 246.2 Q 956.05 249.12 962.2 250.17 Q 968.35 251.22 975.55 251.07 Q 977.8 251.07 980.88 250.92 Q 983.95 250.77 987.1 250.62 Q 990.25 250.47 993.03 250.25 Q 995.8 250.02 997.6 249.8 Q 999.4 249.57 999.7 249.57 L 999.7 206.07 Q 999.7 196.77 998.13 190.47 Q 996.55 184.17 993.03 180.35 Q 989.5 176.52 983.5 174.87 Q 977.5 173.22 968.5 173.22 L 968.05 180.27 Q 972.4 180.27 976.45 180.95 Q 980.5 181.62 983.58 183.42 Q 986.65 185.22 988.45 188.6 Q 990.25 191.97 990.25 197.37 Z M 990.25 205.02 L 990.25 241.77 Q 990.25 241.77 989.58 241.85 Q 988.9 241.92 987.55 242 Q 986.2 242.07 984.33 242.3 Q 982.45 242.52 980.13 242.6 Q 977.8 242.67 975.1 242.82 Q 967.9 243.12 963.25 242 Q 958.6 240.87 955.98 238.4 Q 953.35 235.92 952.3 232.1 Q 951.25 228.27 951.25 223.17 L 951.25 212.22 Q 951.25 207.57 952.53 204.65 Q 953.8 201.72 955.9 200.22 Q 958 198.72 960.33 198.12 Q 962.65 197.52 964.6 197.52 Q 969.25 197.52 973.68 198.65 Q 978.1 199.77 982.38 201.5 Q 986.65 203.22 990.25 205.02 Z M 1058.3 198.27 L 1058.3 249.57 L 1067.6 249.57 L 1067.6 197.82 Q 1067.6 192.87 1066.47 188.97 Q 1065.35 185.07 1063.17 182.15 Q 1061 179.22 1057.85 177.12 Q 1054.7 175.02 1050.65 174.05 Q 1046.6 173.07 1041.8 173.07 Q 1038.2 173.07 1034.6 173.9 Q 1031 174.72 1027.77 176.15 Q 1024.55 177.57 1021.85 179.37 L 1021.85 174.42 L 1012.25 174.42 L 1012.25 249.57 L 1021.85 249.57 L 1021.85 186.57 Q 1024.85 184.77 1027.77 183.72 Q 1030.7 182.67 1033.7 182.07 Q 1036.7 181.47 1040 181.47 Q 1043.45 181.47 1046.67 182.37 Q 1049.9 183.27 1052.6 185.22 Q 1055.3 187.17 1056.8 190.32 Q 1058.3 193.47 1058.3 198.27 Z M 1089.71 229.77 L 1089.71 183.27 L 1103.81 183.27 L 1107.41 174.57 L 1089.71 174.57 L 1089.71 144.57 L 1080.26 144.57 L 1080.26 229.77 Q 1080.26 238.77 1084.31 244.02 Q 1088.36 249.27 1096.91 251.52 L 1099.76 244.17 Q 1096.46 243.12 1094.28 241.25 Q 1092.11 239.37 1090.91 236.45 Q 1089.71 233.52 1089.71 229.77 Z M 1118.3 249.57 L 1127.9 249.57 L 1127.9 174.42 L 1118.3 174.42 Z M 1123.1 143.07 Q 1121 143.07 1119.27 144.72 Q 1117.55 146.37 1117.55 148.62 Q 1117.55 150.87 1119.27 152.45 Q 1121 154.02 1123.1 154.02 Q 1125.5 154.02 1127.07 152.45 Q 1128.65 150.87 1128.65 148.62 Q 1128.65 146.37 1127.07 144.72 Q 1125.5 143.07 1123.1 143.07 Z M 1166.24 151.77 L 1167.74 143.52 Q 1166.99 143.22 1166.02 143.15 Q 1165.04 143.07 1163.99 143.07 Q 1162.94 143.07 1161.89 143.07 Q 1158.14 143.07 1154.24 144.2 Q 1150.34 145.32 1146.97 148.1 Q 1143.59 150.87 1141.57 155.52 Q 1139.54 160.17 1139.54 167.07 L 1139.54 249.57 L 1149.14 249.57 L 1149.14 183.42 L 1162.34 183.42 L 1165.79 174.57 L 1149.14 174.57 L 1149.14 166.77 Q 1149.14 163.02 1149.97 160.1 Q 1150.79 157.17 1152.44 155.3 Q 1154.09 153.42 1156.49 152.45 Q 1158.89 151.47 1162.19 151.47 Q 1163.09 151.47 1164.14 151.47 Q 1165.19 151.47 1166.24 151.77 Z M 1238.82 179.82 L 1235.52 172.77 Q 1231.62 173.82 1229.14 176.22 Q 1226.67 178.62 1225.39 181.77 Q 1224.12 184.92 1224.12 188.52 L 1224.12 223.47 Q 1224.12 227.07 1222.69 230.45 Q 1221.27 233.82 1218.87 236.45 Q 1216.47 239.07 1213.17 240.57 Q 1209.87 242.07 1205.97 242.07 Q 1202.67 242.07 1199.44 241.25 Q 1196.22 240.42 1193.52 238.55 Q 1190.82 236.67 1189.24 233.37 Q 1187.67 230.07 1187.67 225.27 L 1187.67 174.42 L 1178.07 174.42 L 1178.07 225.87 Q 1178.07 232.47 1179.87 237.2 Q 1181.67 241.92 1185.04 244.92 Q 1188.42 247.92 1193.22 249.42 Q 1198.02 250.92 1204.02 250.92 Q 1207.77 250.92 1211.52 249.95 Q 1215.27 248.97 1218.64 247.1 Q 1222.02 245.22 1224.12 242.52 L 1224.12 258.42 Q 1224.12 261.12 1223.59 263.52 Q 1223.07 265.92 1221.87 267.95 Q 1220.67 269.97 1218.79 271.4 Q 1216.92 272.82 1214.37 273.72 L 1216.92 281.07 Q 1222.92 279.27 1226.52 276.57 Q 1230.12 273.87 1231.84 269.52 Q 1233.57 265.17 1233.57 258.87 L 1233.57 189.27 Q 1233.57 184.47 1235.07 182.6 Q 1236.57 180.72 1238.82 179.82 Z" transform="matrix(2.118138, 0, 0, 2.053045, -737.322083, -179.526199)" style="fill: rgb(231, 37, 100); text-wrap-mode: nowrap;"/><defs><style>@import url(https://fonts.googleapis.com/css2?family=Advent+Pro%3Aital%2Cwght%400%2C100..900%3B1%2C100..900&amp;display=swap);</style></defs></svg>
